<svg xmlns="http://www.w3.org/2000/svg" viewBox="0 0 200 200" fill="none">
  <!-- Phê La logo mark: stylized P with leaf -->
  <path d="M100 20 C85 20, 72 30, 72 48 C72 62, 80 72, 95 75 L98 76 L98 170 C98 174, 100 176, 102 176 L102 176 C104 176, 106 174, 106 170 L106 120 C115 125, 125 128, 135 126 C140 125, 144 121, 144 116 C144 110, 138 106, 130 108 C122 110, 115 115, 106 115 L106 76 L109 75 C124 72, 132 62, 132 48 C132 30, 119 20, 100 20 Z M100 32 C112 32, 120 38, 120 48 C120 56, 114 62, 104 64 L100 65 L96 64 C86 62, 80 56, 80 48 C80 38, 88 32, 100 32 Z M96 40 C94 42, 94 46, 96 48 C98 50, 102 52, 106 52" stroke="white" stroke-width="3" fill="white" fill-opacity="0.9"/>
</svg>
